<?xml version="1.0" encoding="utf-8"?>
<!-- Generator: Adobe Illustrator 27.4.1, SVG Export Plug-In . SVG Version: 6.00 Build 0)  -->
<svg version="1.1" id="Capa_1" xmlns="http://www.w3.org/2000/svg" xmlns:xlink="http://www.w3.org/1999/xlink" x="0px" y="0px"
	 viewBox="0 0 42.63 39.5" style="enable-background:new 0 0 42.63 39.5;" xml:space="preserve">
<style type="text/css">
	.st0{fill:#E6DCC9;}
</style>
<path class="st0" d="M42.63,17.32c0,7.99-5.2,15.17-13.05,18.15v2.73c0,0.72-0.58,1.3-1.3,1.3H15.23c-0.72,0-1.3-0.58-1.3-1.3v-2.73
	C6.08,32.49,0.88,25.31,0.88,17.32c0-0.72,0.58-1.3,1.3-1.3h39.15C42.05,16.02,42.63,16.6,42.63,17.32z M1.15,11.67
	c0.44,0.66,0.9,1.21,1.38,1.71h5.6c-0.95-1.04-1.95-2.35-2.45-3.72c-0.27-0.73,0.1-1.53,0.83-1.79C7.25,7.6,8.04,7.97,8.31,8.7
	c0.67,1.84,2.97,3.97,3.8,4.63c0.02,0.01,0.03,0.04,0.04,0.05h1.16c0.94-2.34,0.75-4.17,0.34-5.38c-0.63-1.85-2.06-3.28-4.03-4.03
	C4.54,2.03,3,0.5,3,0.5C2.65,0.12,2.13-0.04,1.63,0.09C1.13,0.22,0.74,0.6,0.62,1.1C0.55,1.36-1,7.54,1.08,11.55
	C1.1,11.59,1.12,11.63,1.15,11.67z M37.51,8.48c0.13-0.47,0.19-0.95,0.19-1.44c0-3.11-2.58-5.63-5.76-5.63
	c-0.95,0-1.89,0.23-2.73,0.67c-1.1-1.32-2.74-2.09-4.47-2.08c-3.18,0-5.76,2.52-5.76,5.63c0,0.99,0.27,1.97,0.77,2.82
	c-0.02,0-0.04,0-0.05,0c-2.78,0-5.04,2.21-5.04,4.93h27.34C42.02,10.83,40.04,8.74,37.51,8.48z"/>
</svg>
