<?xml version="1.0" encoding="utf-8"?>
<!-- Generator: Adobe Illustrator 27.4.1, SVG Export Plug-In . SVG Version: 6.00 Build 0)  -->
<svg version="1.1" id="Capa_1" xmlns="http://www.w3.org/2000/svg" xmlns:xlink="http://www.w3.org/1999/xlink" x="0px" y="0px"
	 viewBox="0 0 46.51 35.83" style="enable-background:new 0 0 46.51 35.83;" xml:space="preserve">
<style type="text/css">
	.st0{fill:#E6DCC9;}
</style>
<path class="st0" d="M46.51,14.86c0,3.49-2.82,6.32-6.3,6.35c-0.9-1.68-2.07-3.2-3.44-4.5c0,0-1.49-1.3-2.14-1.73
	c-1.17-0.8-2.44-1.46-3.78-1.97c0,0-1.56-0.63-3.02-0.83C26.8,12,25.76,11.9,24.69,11.9h-1.75h-3.87h-5.15h-3.87l0,0v0H8.03
	c-0.69-1.72-1.08-3.59-1.08-5.55C6.95,2.85,9.8,0,13.3,0h2.66l2.73,0v0h6.29v0l2.73,0v0h3.94c0.04,0,0.07,0,0.11,0l0.23,0
	c0,0,2.59-0.1,4.73,0.89c2.25,0.82,4.25,2.17,5.84,3.9c0,0,1.16,1.14,1.88,2.53C45.76,9.53,46.51,12.11,46.51,14.86z M6.97,22.38
	c1.33-1.87,2.05-4.16,2.03-6.45v-1.31H6.35c-3.5,0-6.35,2.85-6.35,6.35c0,2.54,0.64,4.94,1.78,7.04c0.92-1.25,1.98-2.23,2.75-2.97
	C5.44,24.16,6.3,23.33,6.97,22.38z M36.33,23.86c-0.92,1.29-2.11,2.48-3.18,3.53c-0.63,0.61-1.22,1.19-1.77,1.81
	c-1.98,2.2-2.4,4.11-2.4,5.33v1.3h4.23c3.5,0,6.35-2.85,6.35-6.35c0-2.75-0.75-5.32-2.05-7.53C37.06,22.86,36.57,23.53,36.33,23.86z
	 M13.2,25.44c1.03-1.01,2.01-1.97,2.79-3.06c1.33-1.87,2.05-4.16,2.03-6.45l0-0.01v-1.3h-6.29v1.29c0.02,2.86-0.88,5.72-2.54,8.05
	C8.37,25.12,7.38,26.07,6.42,27c-0.75,0.72-1.45,1.4-2.06,2.15c-0.21,0.26-0.71,0.87-1,1.23c1.31,1.6,2.94,2.92,4.8,3.86
	c0.05-0.53,0.1-0.94,0.1-0.98l0-0.02c0.26-1.93,1.28-3.9,3.04-5.86C11.92,26.7,12.57,26.06,13.2,25.44z M22.22,25.44
	c1.03-1.01,2.01-1.97,2.79-3.06c1.33-1.87,2.05-4.16,2.03-6.45l0-1.12c-0.77-0.12-1.55-0.19-2.35-0.19h-3.94v1.29
	c0.02,2.86-0.88,5.72-2.54,8.05c-0.92,1.29-2.03,2.38-3.1,3.43c-0.63,0.61-1.22,1.19-1.77,1.81c-1.38,1.53-2.18,3.01-2.36,4.38
	c-0.04,0.32-0.11,1.04-0.16,1.69c1.29,0.36,2.64,0.56,4.05,0.56h2.37v-1.26c-0.12-2.36,0.92-4.78,3.1-7.19
	C20.94,26.7,21.59,26.06,22.22,25.44z M34.13,22.25c0.31-0.43,1.13-1.55,1.42-2.9c-1.58-1.7-3.56-3.02-5.78-3.83
	c0,3.67-0.88,6.12-2.54,8.45c-0.92,1.29-2.03,2.38-3.1,3.43c-0.63,0.61-1.22,1.19-1.77,1.81c-1.69,1.87-2.49,3.64-2.4,5.25l0,1.38
	h6.29v-1.3c0-3.08,1.69-5.59,3.1-7.16C29.96,26.7,32.64,24.27,34.13,22.25z"/>
</svg>
