<?xml version="1.0" encoding="utf-8"?>
<!-- Generator: Adobe Illustrator 27.4.1, SVG Export Plug-In . SVG Version: 6.00 Build 0)  -->
<svg version="1.1" id="Capa_1" xmlns="http://www.w3.org/2000/svg" xmlns:xlink="http://www.w3.org/1999/xlink" x="0px" y="0px"
	 viewBox="0 0 41.76 44.68" style="enable-background:new 0 0 41.76 44.68;" xml:space="preserve">
<style type="text/css">
	.st0{fill:#E6DCC9;}
</style>
<path class="st0" d="M41.76,22.5c0,7.99-5.2,15.17-13.05,18.15v2.73c0,0.72-0.58,1.3-1.3,1.3H14.35c-0.72,0-1.3-0.58-1.3-1.3v-2.73
	C5.21,37.67,0,30.49,0,22.5c0-0.72,0.58-1.3,1.3-1.3h39.15C41.17,21.2,41.76,21.78,41.76,22.5z M4.13,18.87h4.8l2.32-0.94
	c0.12,0.41,0.41,0.74,0.78,0.94h10.53c0.16-0.23,0.26-0.5,0.28-0.79l0.15-2.49l0.46,1.15c0.29,0.72,1.11,1.07,1.83,0.78l4.89-1.98
	l1.35,3.34h4.8l2.76-1.12c0.6-0.24,0.89-0.93,0.65-1.53l-2.35-5.79c-0.24-0.6-0.93-0.89-1.53-0.65l-3.55,1.44l-2.13-5.26
	c-0.29-0.72-1.11-1.07-1.83-0.78L26.82,5.8c-0.37-1.06-1.29-1.85-2.42-2.03c0.24-0.38,0.39-0.83,0.39-1.32
	c0-1.36-1.1-2.46-2.46-2.46s-2.46,1.1-2.46,2.46c0,0.13,0.02,0.25,0.04,0.38c-0.33-0.12-0.67-0.19-1.04-0.19
	c-1.69,0-3.06,1.37-3.06,3.06c0,0.72,0.26,1.37,0.67,1.89l-3.1-0.18c-0.88-0.05-1.64,0.62-1.69,1.5l-0.3,4.98l-1.4-3.46
	c-0.24-0.6-0.93-0.89-1.53-0.65l-5.79,2.35c-0.6,0.24-0.89,0.93-0.65,1.53L4.13,18.87z"/>
</svg>
